<svg width="55" height="50" viewBox="0 0 55 50" fill="none" xmlns="http://www.w3.org/2000/svg">
<path d="M26.7071 9.29289C26.3166 8.90237 25.6834 8.90237 25.2929 9.29289L18.9289 15.6569C18.5384 16.0474 18.5384 16.6805 18.9289 17.0711C19.3195 17.4616 19.9526 17.4616 20.3431 17.0711L26 11.4142L31.6569 17.0711C32.0474 17.4616 32.6805 17.4616 33.0711 17.0711C33.4616 16.6805 33.4616 16.0474 33.0711 15.6569L26.7071 9.29289ZM26 30.7882H25V31.2244L25.3196 31.5211L26 30.7882ZM37.0371 41.9993C37.589 41.9788 38.0198 41.5148 37.9993 40.9629L37.6651 31.9691C37.6446 31.4172 37.1806 30.9864 36.6287 31.0069C36.0767 31.0274 35.646 31.4914 35.6665 32.0433L35.9636 40.0378L27.9691 40.3349C27.4172 40.3554 26.9864 40.8194 27.0069 41.3713C27.0274 41.9233 27.4914 42.354 28.0433 42.3335L37.0371 41.9993ZM26 10H25V30.7882H26H27V10H26ZM26 30.7882L25.3196 31.5211L36.3196 41.7329L37 41L37.6804 40.2671L26.6804 30.0554L26 30.7882Z" fill="white"/>
<path d="M43.6828 49C49.9583 44.1014 54 36.421 54 27.7865C54 12.9927 42.1356 1 27.5 1C12.8644 1 1 12.9927 1 27.7865C1 36.1646 4.80507 43.6442 10.7637 48.556" stroke="white" stroke-width="2"/>
</svg>
